<mxfile host="app.diagrams.net" modified="2024-05-23T20:55:37.812Z" agent="Mozilla/5.0 (X11; Linux x86_64; rv:124.0) Gecko/20100101 Firefox/124.0" version="24.4.0" etag="gyGTIa04k6G2bJuhkQrc" type="github">
  <diagram name="Seite-1" id="NtlIoO_kiy7ZvRrCBQCj">
    <mxGraphModel>
      <root>
        <mxCell id="0" />
        <mxCell id="1" parent="0" />
      </root>
    </mxGraphModel>
  </diagram>
</mxfile>
